<?xml version="1.0" encoding="UTF-8"?>
<svg id="Layer_1" data-name="Layer 1" xmlns="http://www.w3.org/2000/svg" viewBox="0 0 437.71 56.9">
  <defs>
    <style>
      .cls-1 {
        fill: #f37068;
        stroke-width: 0px;
      }
    </style>
  </defs>
  <path class="cls-1" d="m28.97.68v4.45H12.87v14.79h13.66v4.45h-13.66v20.68H0V.68h28.97Zm36.84,43.21c-2.9,1.13-5.73,1.69-8.49,1.69-4.08,0-6.59-1.27-7.54-3.8-1.97,2.64-4.81,3.97-8.52,3.97-6.91,0-10.37-3.21-10.37-9.62,0-4.88,3.16-8.3,9.49-10.27,5.81-1.82,8.71-4.01,8.71-6.57,0-3.36-1.67-5.04-5.01-5.04-3.86,0-5.79,1.63-5.79,4.88,0,1.02.3,2.36.91,4.03l-5.88-1.14c-.15-1.02-.23-1.97-.23-2.86,0-5.2,4.75-7.8,14.24-7.8s13.53,2.43,13.53,7.28v19.9c0,2.04.66,3.06,1.98,3.06.41,0,1.02-.23,1.82-.68l1.14,2.99Zm-16.81-18.53c-.74.85-1.59,1.55-2.57,2.11-2.45,1.43-3.67,3.84-3.67,7.22,0,4.34.85,6.5,2.54,6.5,2.47,0,3.71-2.14,3.71-6.44v-9.4Zm49.97,19.7h-11.87v-24.06c0-2.45-.68-3.67-2.05-3.67s-2.59.97-3.61,2.91c-1.02,1.94-1.53,4.23-1.53,6.88v17.95h-11.87V12.22c4.07,0,8.03-.27,11.87-.81v6.14c2.95-4.07,6.55-6.11,10.79-6.11,5.51,0,8.26,2.8,8.26,8.39v25.23Zm29.94-14.63l5.01,1.53.03,1.33c0,8.32-4.55,12.48-13.66,12.48-10.79,0-16.19-5.47-16.19-16.42,0-5.48,1.57-9.86,4.71-13.12,3.14-3.26,7.36-4.89,12.65-4.89,7.61,0,11.41,3.45,11.41,10.34l-5.56,2.7.07-3.12c0-4.68-1.57-7.02-4.71-7.02-4.16,0-6.24,4.6-6.24,13.79,0,5.68.44,9.57,1.33,11.69.89,2.11,2.54,3.17,4.94,3.17,4.4,0,6.6-2.85,6.6-8.55,0-.8-.13-2.1-.39-3.9Zm36.74-18.14l-15.02,37c-2.06,5.07-4.83,7.61-8.32,7.61s-5.68-1.44-6.89-4.32l4.1-2.96c.33,2.49,1.25,3.74,2.76,3.74,1.71,0,3.1-1.44,4.16-4.32l.88-2.34-13.2-34.4h13.04l6.6,19.28,7.51-19.28h4.39ZM217.6.68v4.45h-16.09v14.79h13.65v4.45h-13.65v20.68h-12.88V.68h28.97Zm27.25,32.38l4.78,1.4c-.5,7.56-4.96,11.35-13.4,11.35-10.92,0-16.39-5.45-16.39-16.35,0-5.29,1.45-9.62,4.36-13s6.62-5.07,11.15-5.07c9.47,0,14.21,6.11,14.21,18.34h-17.3c0,8.58,2.18,12.87,6.53,12.87,4.08,0,6.11-2.43,6.11-7.28,0-.65-.02-1.4-.06-2.24Zm-12.61-7.02h7.09c0-7.63-1.15-11.44-3.45-11.44-2.08,0-3.25,2.83-3.51,8.49l-.13,2.96Zm55.47,17.85c-2.9,1.13-5.73,1.69-8.49,1.69-4.07,0-6.59-1.27-7.54-3.8-1.97,2.64-4.81,3.97-8.52,3.97-6.91,0-10.37-3.21-10.37-9.62,0-4.88,3.16-8.3,9.49-10.27,5.81-1.82,8.71-4.01,8.71-6.57,0-3.36-1.67-5.04-5.01-5.04-3.86,0-5.79,1.63-5.79,4.88,0,1.02.3,2.36.91,4.03l-5.88-1.14c-.15-1.02-.23-1.97-.23-2.86,0-5.2,4.75-7.8,14.24-7.8s13.53,2.43,13.53,7.28v19.9c0,2.04.66,3.06,1.98,3.06.41,0,1.02-.23,1.82-.68l1.14,2.99Zm-16.81-18.53c-.74.85-1.59,1.55-2.57,2.11-2.45,1.43-3.67,3.84-3.67,7.22,0,4.34.85,6.5,2.54,6.5,2.47,0,3.71-2.14,3.71-6.44v-9.4Zm36.71-12.97v3.67h-5.27v23.18c0,1.45.47,2.18,1.4,2.18.67,0,1.07-.49,1.2-1.46l3.38.32c-.93,3.42-3.9,5.14-8.91,5.14-5.96,0-8.94-2.54-8.94-7.61v-21.75h-3.97v-3.67h3.97v-5.79c4.1-1.13,8.05-2.75,11.87-4.88v10.66h5.27Zm3.67,32.67V.68c3.51,0,7.47-.23,11.87-.68v17.91c2.56-4.31,6.17-6.47,10.83-6.47,5.51,0,8.26,2.47,8.26,7.41v26.2h-11.87v-24.9c0-1.89-.63-2.83-1.88-2.83s-2.51,1.21-3.64,3.62c-1.13,2.42-1.69,5.01-1.69,7.79v16.32h-11.87Zm61.09-12l4.78,1.4c-.5,7.56-4.96,11.35-13.4,11.35-10.92,0-16.39-5.45-16.39-16.35,0-5.29,1.45-9.62,4.36-13s6.62-5.07,11.15-5.07c9.47,0,14.21,6.11,14.21,18.34h-17.3c0,8.58,2.18,12.87,6.53,12.87,4.08,0,6.11-2.43,6.11-7.28,0-.65-.02-1.4-.06-2.24Zm-12.61-7.02h7.09c0-7.63-1.15-11.44-3.45-11.44-2.08,0-3.25,2.83-3.51,8.49l-.13,2.96Zm45.97-1.85h-8.13c.28-1.28.53-2.22.75-2.83.3-.89.45-1.69.45-2.41,0-1.39-.5-2.08-1.49-2.08-.76,0-1.48.92-2.18,2.75-.69,1.83-1.04,3.77-1.04,5.8v19.64h-11.87V12.29l2.31.03c2.73,0,5.92-.29,9.56-.88v5.4c1.93-3.6,4.29-5.4,7.09-5.4,3.82,0,5.72,2.1,5.72,6.31,0,1.11-.18,2.37-.55,3.8-.13.59-.34,1.46-.62,2.63Zm30.5-3.48l-5.75,1.01c0-4.9-2.28-7.35-6.83-7.35-2.79,0-4.19,1.15-4.19,3.45,0,1.69,2.41,3.51,7.22,5.46,7.37,3.01,11.05,6.84,11.05,11.48,0,7.39-4.69,11.09-14.08,11.09-9.93,0-14.89-3.7-14.89-11.09l6.11-1.24c-.09.72-.13,1.39-.13,2.02,0,1.91.8,3.56,2.39,4.97,1.59,1.41,3.47,2.11,5.64,2.11,2.86,0,4.29-1.21,4.29-3.64,0-1.62-2.31-3.42-6.93-5.4-6.96-2.99-10.44-6.83-10.44-11.51,0-3.1,1.33-5.64,4-7.62,2.66-1.98,6.09-2.97,10.27-2.97,7.43,0,11.52,3.08,12.26,9.23Z"/>
</svg>